# xmcd
#
# Track frame offsets: 
#        150
#        16535
#        31185
#        55327
#        70807
#        85000
#        98625
#        113395
#        130495
#        145125
#        158502
#        171402
#        189257
#        202415
#        215434
#
# Disc length: 3074 seconds
#
# Revision: 0
# Processed by: cddbd v1.5.2PL0 Copyright (c) Steve Scherf et al.
# Submitted via: ExactAudioCopy v0.95b4
#
DISCID=c20c000f
DTITLE=Freddy Fender - In Concert The Freddy Fender Show
DYEAR=1995
DGENRE=TexMex
TTITLE0=Whiskey River
TTITLE1=I Can't Stop Loving You
TTITLE2=Six Days On The Road
TTITLE3=Loving Cajun Style
TTITLE4=Walking Piece Of Heaven
TTITLE5=Sugar Coated Loving
TTITLE6=Cielito Lindo
TTITLE7=Jambalaya
TTITLE8=The Rains Came
TTITLE9=Mexican Rose
TTITLE10=Tell It Like It Is
TTITLE11=Secret Love
TTITLE12=Rancho Grande
TTITLE13=Before The Next Teardrop Falls
TTITLE14=Wasted Days And Wasted Nights
EXTD=
EXTT0=
EXTT1=
EXTT2=
EXTT3=
EXTT4=
EXTT5=
EXTT6=
EXTT7=
EXTT8=
EXTT9=
EXTT10=
EXTT11=
EXTT12=
EXTT13=
EXTT14=
PLAYORDER=
